{
	"asset":{
		"generator":"Khronos glTF Blender I/O v4.2.57",
		"version":"2.0"
	},
	"scene":0,
	"scenes":[
		{
			"name":"Scene",
			"nodes":[
				0
			]
		}
	],
	"nodes":[
		{
			"mesh":0,
			"name":"Chair_4"
		}
	],
	"materials":[
		{
			"doubleSided":true,
			"name":"Material",
			"normalTexture":{
				"index":0
			},
			"pbrMetallicRoughness":{
				"baseColorTexture":{
					"index":1
				},
				"metallicFactor":0,
				"metallicRoughnessTexture":{
					"index":2
				}
			}
		}
	],
	"meshes":[
		{
			"name":"Chair_4",
			"primitives":[
				{
					"attributes":{
						"POSITION":0,
						"NORMAL":1,
						"TEXCOORD_0":2
					},
					"indices":3,
					"material":0
				}
			]
		}
	],
	"textures":[
		{
			"sampler":0,
			"source":0
		},
		{
			"sampler":0,
			"source":1
		},
		{
			"sampler":0,
			"source":2
		}
	],
	"images":[
		{
			"mimeType":"image/png",
			"name":"Chair_4_ Normal-2K",
			"uri":"Chair_4_%20Normal-2K.png"
		},
		{
			"mimeType":"image/png",
			"name":"Chair_4_ Base Color-2K",
			"uri":"Chair_4_%20Base%20Color-2K.png"
		},
		{
			"mimeType":"image/png",
			"name":"Chair_4_ Roughness-2K",
			"uri":"Chair_4_%20Roughness-2K.png"
		}
	],
	"accessors":[
		{
			"bufferView":0,
			"componentType":5126,
			"count":17487,
			"max":[
				0.2793685793876648,
				0.838241457939148,
				0.21365387737751007
			],
			"min":[
				-0.2762981653213501,
				0.0005491857882589102,
				-0.35936295986175537
			],
			"type":"VEC3"
		},
		{
			"bufferView":1,
			"componentType":5126,
			"count":17487,
			"type":"VEC3"
		},
		{
			"bufferView":2,
			"componentType":5126,
			"count":17487,
			"type":"VEC2"
		},
		{
			"bufferView":3,
			"componentType":5123,
			"count":87372,
			"type":"SCALAR"
		}
	],
	"bufferViews":[
		{
			"buffer":0,
			"byteLength":209844,
			"byteOffset":0,
			"target":34962
		},
		{
			"buffer":0,
			"byteLength":209844,
			"byteOffset":209844,
			"target":34962
		},
		{
			"buffer":0,
			"byteLength":139896,
			"byteOffset":419688,
			"target":34962
		},
		{
			"buffer":0,
			"byteLength":174744,
			"byteOffset":559584,
			"target":34963
		}
	],
	"samplers":[
		{
			"magFilter":9729,
			"minFilter":9987
		}
	],
	"buffers":[
		{
			"byteLength":734328,
			"uri":"3D_chair_4.bin"
		}
	]
}
