{
	"asset":{
		"generator":"Khronos glTF Blender I/O v3.6.28",
		"version":"2.0"
	},
	"scene":0,
	"scenes":[
		{
			"name":"Scene",
			"nodes":[
				0,
				1
			]
		}
	],
	"nodes":[
		{
			"mesh":0,
			"name":"Cube.001",
			"translation":[
				0,
				1.6399999856948853,
				0
			]
		},
		{
			"mesh":1,
			"name":"Cube.002",
			"translation":[
				-0.987952470779419,
				0,
				0
			]
		}
	],
	"materials":[
		{
			"doubleSided":true,
			"name":"Door",
			"pbrMetallicRoughness":{
				"baseColorTexture":{
					"index":0
				},
				"metallicRoughnessTexture":{
					"index":1
				}
			}
		}
	],
	"meshes":[
		{
			"name":"Cube.003",
			"primitives":[
				{
					"attributes":{
						"POSITION":0,
						"NORMAL":1,
						"TEXCOORD_0":2
					},
					"indices":3,
					"material":0
				}
			]
		},
		{
			"name":"Cube.001",
			"primitives":[
				{
					"attributes":{
						"POSITION":4,
						"NORMAL":5,
						"TEXCOORD_0":6
					},
					"indices":7,
					"material":0
				}
			]
		}
	],
	"textures":[
		{
			"sampler":0,
			"source":0
		},
		{
			"sampler":0,
			"source":1
		}
	],
	"images":[
		{
			"mimeType":"image/png",
			"name":"Door_Set02_base",
			"uri":"Door_Set02_base.png"
		},
		{
			"mimeType":"image/png",
			"name":"Door_Set02_metal-Door_Set02_rough",
			"uri":"Door_Set02_metal-Door_Set02_rough.png"
		}
	],
	"accessors":[
		{
			"bufferView":0,
			"componentType":5126,
			"count":66,
			"max":[
				1.0540000200271606,
				1.6588460206985474,
				0.17508292198181152
			],
			"min":[
				-1.0540000200271606,
				-1.6304938793182373,
				-0.1845337152481079
			],
			"type":"VEC3"
		},
		{
			"bufferView":1,
			"componentType":5126,
			"count":66,
			"type":"VEC3"
		},
		{
			"bufferView":2,
			"componentType":5126,
			"count":66,
			"type":"VEC2"
		},
		{
			"bufferView":3,
			"componentType":5123,
			"count":162,
			"type":"SCALAR"
		},
		{
			"bufferView":4,
			"componentType":5126,
			"count":208,
			"max":[
				1.9898486137390137,
				3.2136483192443848,
				0.22060246765613556
			],
			"min":[
				-0.010151445865631104,
				0.009647250175476074,
				-0.22060246765613556
			],
			"type":"VEC3"
		},
		{
			"bufferView":5,
			"componentType":5126,
			"count":208,
			"type":"VEC3"
		},
		{
			"bufferView":6,
			"componentType":5126,
			"count":208,
			"type":"VEC2"
		},
		{
			"bufferView":7,
			"componentType":5123,
			"count":564,
			"type":"SCALAR"
		}
	],
	"bufferViews":[
		{
			"buffer":0,
			"byteLength":792,
			"byteOffset":0,
			"target":34962
		},
		{
			"buffer":0,
			"byteLength":792,
			"byteOffset":792,
			"target":34962
		},
		{
			"buffer":0,
			"byteLength":528,
			"byteOffset":1584,
			"target":34962
		},
		{
			"buffer":0,
			"byteLength":324,
			"byteOffset":2112,
			"target":34963
		},
		{
			"buffer":0,
			"byteLength":2496,
			"byteOffset":2436,
			"target":34962
		},
		{
			"buffer":0,
			"byteLength":2496,
			"byteOffset":4932,
			"target":34962
		},
		{
			"buffer":0,
			"byteLength":1664,
			"byteOffset":7428,
			"target":34962
		},
		{
			"buffer":0,
			"byteLength":1128,
			"byteOffset":9092,
			"target":34963
		}
	],
	"samplers":[
		{
			"magFilter":9729,
			"minFilter":9987
		}
	],
	"buffers":[
		{
			"byteLength":10220,
			"uri":"Door.bin"
		}
	]
}
