{
	"asset":{
		"generator":"Khronos glTF Blender I/O v3.6.28",
		"version":"2.0"
	},
	"scene":0,
	"scenes":[
		{
			"name":"Scene",
			"nodes":[
				0,
				1,
				2
			]
		}
	],
	"nodes":[
		{
			"mesh":0,
			"name":"Cube",
			"translation":[
				0.505325436592102,
				1.6085418462753296,
				0
			]
		},
		{
			"mesh":1,
			"name":"Cube.001",
			"translation":[
				0,
				1.6399999856948853,
				0
			]
		},
		{
			"mesh":2,
			"name":"Cube.002",
			"translation":[
				-0.5023028254508972,
				1.6085418462753296,
				0
			]
		}
	],
	"materials":[
		{
			"doubleSided":true,
			"name":"Door",
			"normalTexture":{
				"index":0
			},
			"pbrMetallicRoughness":{
				"baseColorTexture":{
					"index":1
				},
				"metallicRoughnessTexture":{
					"index":2
				}
			}
		},
		{
			"doubleSided":true,
			"name":"Door.001",
			"normalTexture":{
				"index":3
			},
			"pbrMetallicRoughness":{
				"baseColorTexture":{
					"index":4
				},
				"metallicRoughnessTexture":{
					"index":5
				}
			}
		}
	],
	"meshes":[
		{
			"name":"Cube",
			"primitives":[
				{
					"attributes":{
						"POSITION":0,
						"NORMAL":1,
						"TEXCOORD_0":2
					},
					"indices":3,
					"material":0
				}
			]
		},
		{
			"name":"Cube.003",
			"primitives":[
				{
					"attributes":{
						"POSITION":4,
						"NORMAL":5,
						"TEXCOORD_0":6
					},
					"indices":7,
					"material":0
				}
			]
		},
		{
			"name":"Cube.004",
			"primitives":[
				{
					"attributes":{
						"POSITION":8,
						"NORMAL":9,
						"TEXCOORD_0":10
					},
					"indices":3,
					"material":1
				}
			]
		}
	],
	"textures":[
		{
			"sampler":0,
			"source":0
		},
		{
			"sampler":0,
			"source":1
		},
		{
			"sampler":0,
			"source":2
		},
		{
			"sampler":0,
			"source":0
		},
		{
			"sampler":0,
			"source":1
		},
		{
			"sampler":0,
			"source":3
		}
	],
	"images":[
		{
			"mimeType":"image/png",
			"name":"Metal032_2K_NormalGL",
			"uri":"Metal032_2K_NormalGL.png"
		},
		{
			"mimeType":"image/png",
			"name":"Metal032_2K_Color",
			"uri":"Metal032_2K_Color.png"
		},
		{
			"mimeType":"image/png",
			"name":"Metal032_2K_Metalness-Metal032_2K_Roughness",
			"uri":"Metal032_2K_Metalness-Metal032_2K_Roughness.png"
		},
		{
			"mimeType":"image/png",
			"name":"Metal032_2K_Metalness.png-Metal032_2K_Roughness.png",
			"uri":"Metal032_2K_Metalness_png-Metal032_2K_Roughness_png.png"
		}
	],
	"accessors":[
		{
			"bufferView":0,
			"componentType":5126,
			"count":24,
			"max":[
				0.5055798888206482,
				1.6021195650100708,
				0.062244001775979996
			],
			"min":[
				-0.5055798888206482,
				-1.6021195650100708,
				-0.062244001775979996
			],
			"type":"VEC3"
		},
		{
			"bufferView":1,
			"componentType":5126,
			"count":24,
			"type":"VEC3"
		},
		{
			"bufferView":2,
			"componentType":5126,
			"count":24,
			"type":"VEC2"
		},
		{
			"bufferView":3,
			"componentType":5123,
			"count":36,
			"type":"SCALAR"
		},
		{
			"bufferView":4,
			"componentType":5126,
			"count":66,
			"max":[
				1.0540000200271606,
				1.6588460206985474,
				0.17508292198181152
			],
			"min":[
				-1.0540000200271606,
				-1.6304938793182373,
				-0.1845337152481079
			],
			"type":"VEC3"
		},
		{
			"bufferView":5,
			"componentType":5126,
			"count":66,
			"type":"VEC3"
		},
		{
			"bufferView":6,
			"componentType":5126,
			"count":66,
			"type":"VEC2"
		},
		{
			"bufferView":7,
			"componentType":5123,
			"count":162,
			"type":"SCALAR"
		},
		{
			"bufferView":8,
			"componentType":5126,
			"count":24,
			"max":[
				0.5055798888206482,
				1.6021195650100708,
				0.062244001775979996
			],
			"min":[
				-0.5055798888206482,
				-1.6021195650100708,
				-0.062244001775979996
			],
			"type":"VEC3"
		},
		{
			"bufferView":9,
			"componentType":5126,
			"count":24,
			"type":"VEC3"
		},
		{
			"bufferView":10,
			"componentType":5126,
			"count":24,
			"type":"VEC2"
		}
	],
	"bufferViews":[
		{
			"buffer":0,
			"byteLength":288,
			"byteOffset":0,
			"target":34962
		},
		{
			"buffer":0,
			"byteLength":288,
			"byteOffset":288,
			"target":34962
		},
		{
			"buffer":0,
			"byteLength":192,
			"byteOffset":576,
			"target":34962
		},
		{
			"buffer":0,
			"byteLength":72,
			"byteOffset":768,
			"target":34963
		},
		{
			"buffer":0,
			"byteLength":792,
			"byteOffset":840,
			"target":34962
		},
		{
			"buffer":0,
			"byteLength":792,
			"byteOffset":1632,
			"target":34962
		},
		{
			"buffer":0,
			"byteLength":528,
			"byteOffset":2424,
			"target":34962
		},
		{
			"buffer":0,
			"byteLength":324,
			"byteOffset":2952,
			"target":34963
		},
		{
			"buffer":0,
			"byteLength":288,
			"byteOffset":3276,
			"target":34962
		},
		{
			"buffer":0,
			"byteLength":288,
			"byteOffset":3564,
			"target":34962
		},
		{
			"buffer":0,
			"byteLength":192,
			"byteOffset":3852,
			"target":34962
		}
	],
	"samplers":[
		{
			"magFilter":9729,
			"minFilter":9987
		}
	],
	"buffers":[
		{
			"byteLength":4044,
			"uri":"Door.bin"
		}
	]
}
