{
	"asset":{
		"generator":"Khronos glTF Blender I/O v3.6.28",
		"version":"2.0"
	},
	"scene":0,
	"scenes":[
		{
			"name":"Scene",
			"nodes":[
				0
			]
		}
	],
	"nodes":[
		{
			"mesh":0,
			"name":"Washer"
		}
	],
	"materials":[
		{
			"doubleSided":true,
			"name":"Ceramic",
			"pbrMetallicRoughness":{
				"baseColorTexture":{
					"index":0
				},
				"metallicFactor":0,
				"roughnessFactor":0.5
			}
		},
		{
			"doubleSided":true,
			"name":"Metal",
			"pbrMetallicRoughness":{
				"baseColorTexture":{
					"index":1
				},
				"metallicFactor":0,
				"roughnessFactor":0.5
			}
		}
	],
	"meshes":[
		{
			"name":"Cube.003",
			"primitives":[
				{
					"attributes":{
						"POSITION":0,
						"NORMAL":1,
						"TEXCOORD_0":2
					},
					"indices":3,
					"material":0
				},
				{
					"attributes":{
						"POSITION":4,
						"NORMAL":5,
						"TEXCOORD_0":6
					},
					"indices":7,
					"material":1
				}
			]
		}
	],
	"textures":[
		{
			"sampler":0,
			"source":0
		},
		{
			"sampler":0,
			"source":1
		}
	],
	"images":[
		{
			"mimeType":"image/png",
			"name":"WhiteColor",
			"uri":"WhiteColor.png"
		},
		{
			"mimeType":"image/png",
			"name":"GrayColor",
			"uri":"GrayColor.png"
		}
	],
	"accessors":[
		{
			"bufferView":0,
			"componentType":5126,
			"count":153,
			"max":[
				0.9603772759437561,
				4.623137474060059,
				0.55126953125
			],
			"min":[
				-0.9603771567344666,
				0,
				-0.89926677942276
			],
			"type":"VEC3"
		},
		{
			"bufferView":1,
			"componentType":5126,
			"count":153,
			"type":"VEC3"
		},
		{
			"bufferView":2,
			"componentType":5126,
			"count":153,
			"type":"VEC2"
		},
		{
			"bufferView":3,
			"componentType":5123,
			"count":603,
			"type":"SCALAR"
		},
		{
			"bufferView":4,
			"componentType":5126,
			"count":953,
			"max":[
				0.37338125705718994,
				5.161700248718262,
				-0.20946484804153442
			],
			"min":[
				-0.3802034854888916,
				4.166104316711426,
				-0.8893470168113708
			],
			"type":"VEC3"
		},
		{
			"bufferView":5,
			"componentType":5126,
			"count":953,
			"type":"VEC3"
		},
		{
			"bufferView":6,
			"componentType":5126,
			"count":953,
			"type":"VEC2"
		},
		{
			"bufferView":7,
			"componentType":5123,
			"count":4392,
			"type":"SCALAR"
		}
	],
	"bufferViews":[
		{
			"buffer":0,
			"byteLength":1836,
			"byteOffset":0,
			"target":34962
		},
		{
			"buffer":0,
			"byteLength":1836,
			"byteOffset":1836,
			"target":34962
		},
		{
			"buffer":0,
			"byteLength":1224,
			"byteOffset":3672,
			"target":34962
		},
		{
			"buffer":0,
			"byteLength":1206,
			"byteOffset":4896,
			"target":34963
		},
		{
			"buffer":0,
			"byteLength":11436,
			"byteOffset":6104,
			"target":34962
		},
		{
			"buffer":0,
			"byteLength":11436,
			"byteOffset":17540,
			"target":34962
		},
		{
			"buffer":0,
			"byteLength":7624,
			"byteOffset":28976,
			"target":34962
		},
		{
			"buffer":0,
			"byteLength":8784,
			"byteOffset":36600,
			"target":34963
		}
	],
	"samplers":[
		{
			"magFilter":9729,
			"minFilter":9987
		}
	],
	"buffers":[
		{
			"byteLength":45384,
			"uri":"HandWasher.bin"
		}
	]
}
