{
	"asset":{
		"generator":"Khronos glTF Blender I/O v3.6.28",
		"version":"2.0"
	},
	"extensionsUsed":[
		"KHR_materials_specular",
		"KHR_materials_ior"
	],
	"scene":0,
	"scenes":[
		{
			"name":"Scene",
			"nodes":[
				0
			]
		}
	],
	"nodes":[
		{
			"mesh":0,
			"name":"Shower"
		}
	],
	"materials":[
		{
			"doubleSided":true,
			"name":"Ceramic.001",
			"pbrMetallicRoughness":{
				"baseColorTexture":{
					"index":0
				},
				"metallicFactor":0,
				"roughnessFactor":0.5
			}
		},
		{
			"doubleSided":true,
			"name":"Metal.003",
			"pbrMetallicRoughness":{
				"baseColorTexture":{
					"index":1
				},
				"metallicFactor":0,
				"roughnessFactor":0.5
			}
		},
		{
			"alphaMode":"BLEND",
			"extensions":{
				"KHR_materials_specular":{
					"specularColorFactor":[
						2.371357614441398,
						2.371357614441398,
						2.371357614441398
					]
				},
				"KHR_materials_ior":{
					"ior":1.4500000476837158
				}
			},
			"name":"Glass",
			"pbrMetallicRoughness":{
				"baseColorFactor":[
					1,
					1,
					1,
					0.30000001192092896
				],
				"baseColorTexture":{
					"index":2
				},
				"metallicFactor":0,
				"roughnessFactor":0
			}
		},
		{
			"doubleSided":true,
			"name":"Rubber",
			"pbrMetallicRoughness":{
				"baseColorTexture":{
					"index":3
				},
				"metallicFactor":0,
				"roughnessFactor":0.5
			}
		}
	],
	"meshes":[
		{
			"name":"Cube.002",
			"primitives":[
				{
					"attributes":{
						"POSITION":0,
						"NORMAL":1,
						"TEXCOORD_0":2
					},
					"indices":3,
					"material":0
				},
				{
					"attributes":{
						"POSITION":4,
						"NORMAL":5,
						"TEXCOORD_0":6
					},
					"indices":7,
					"material":1
				},
				{
					"attributes":{
						"POSITION":8,
						"NORMAL":9,
						"TEXCOORD_0":10
					},
					"indices":11,
					"material":2
				},
				{
					"attributes":{
						"POSITION":12,
						"NORMAL":13,
						"TEXCOORD_0":14
					},
					"indices":15,
					"material":3
				}
			]
		}
	],
	"textures":[
		{
			"sampler":0,
			"source":0
		},
		{
			"sampler":0,
			"source":1
		},
		{
			"sampler":0,
			"source":2
		},
		{
			"sampler":0,
			"source":3
		}
	],
	"images":[
		{
			"mimeType":"image/png",
			"name":"WhiteColor",
			"uri":"WhiteColor.png"
		},
		{
			"mimeType":"image/png",
			"name":"GrayColor",
			"uri":"GrayColor.png"
		},
		{
			"mimeType":"image/png",
			"name":"GlassTexture",
			"uri":"GlassTexture.png"
		},
		{
			"mimeType":"image/png",
			"name":"YellowColor",
			"uri":"YellowColor.png"
		}
	],
	"accessors":[
		{
			"bufferView":0,
			"componentType":5126,
			"count":48,
			"max":[
				4.015855312347412,
				0.5402387976646423,
				2.007350206375122
			],
			"min":[
				0.004067599773406982,
				0.006514161825180054,
				-2.0044376850128174
			],
			"type":"VEC3"
		},
		{
			"bufferView":1,
			"componentType":5126,
			"count":48,
			"type":"VEC3"
		},
		{
			"bufferView":2,
			"componentType":5126,
			"count":48,
			"type":"VEC2"
		},
		{
			"bufferView":3,
			"componentType":5123,
			"count":96,
			"type":"SCALAR"
		},
		{
			"bufferView":4,
			"componentType":5126,
			"count":1130,
			"max":[
				3.0220353603363037,
				11.878278732299805,
				0.6177951693534851
			],
			"min":[
				-0.03381991386413574,
				0.039010658860206604,
				-2.145836591720581
			],
			"type":"VEC3"
		},
		{
			"bufferView":5,
			"componentType":5126,
			"count":1130,
			"type":"VEC3"
		},
		{
			"bufferView":6,
			"componentType":5126,
			"count":1130,
			"type":"VEC2"
		},
		{
			"bufferView":7,
			"componentType":5123,
			"count":4542,
			"type":"SCALAR"
		},
		{
			"bufferView":8,
			"componentType":5126,
			"count":12,
			"max":[
				0.026230230927467346,
				9.939127922058105,
				1.0164302587509155
			],
			"min":[
				0.002287760376930237,
				5.774608135223389,
				0.05552738904953003
			],
			"type":"VEC3"
		},
		{
			"bufferView":9,
			"componentType":5126,
			"count":12,
			"type":"VEC3"
		},
		{
			"bufferView":10,
			"componentType":5126,
			"count":12,
			"type":"VEC2"
		},
		{
			"bufferView":11,
			"componentType":5123,
			"count":30,
			"type":"SCALAR"
		},
		{
			"bufferView":12,
			"componentType":5126,
			"count":1400,
			"max":[
				2.922647476196289,
				10.819146156311035,
				-0.24643954634666443
			],
			"min":[
				1.11653470993042,
				10.753640174865723,
				-2.0311710834503174
			],
			"type":"VEC3"
		},
		{
			"bufferView":13,
			"componentType":5126,
			"count":1400,
			"type":"VEC3"
		},
		{
			"bufferView":14,
			"componentType":5126,
			"count":1400,
			"type":"VEC2"
		},
		{
			"bufferView":15,
			"componentType":5123,
			"count":3600,
			"type":"SCALAR"
		}
	],
	"bufferViews":[
		{
			"buffer":0,
			"byteLength":576,
			"byteOffset":0,
			"target":34962
		},
		{
			"buffer":0,
			"byteLength":576,
			"byteOffset":576,
			"target":34962
		},
		{
			"buffer":0,
			"byteLength":384,
			"byteOffset":1152,
			"target":34962
		},
		{
			"buffer":0,
			"byteLength":192,
			"byteOffset":1536,
			"target":34963
		},
		{
			"buffer":0,
			"byteLength":13560,
			"byteOffset":1728,
			"target":34962
		},
		{
			"buffer":0,
			"byteLength":13560,
			"byteOffset":15288,
			"target":34962
		},
		{
			"buffer":0,
			"byteLength":9040,
			"byteOffset":28848,
			"target":34962
		},
		{
			"buffer":0,
			"byteLength":9084,
			"byteOffset":37888,
			"target":34963
		},
		{
			"buffer":0,
			"byteLength":144,
			"byteOffset":46972,
			"target":34962
		},
		{
			"buffer":0,
			"byteLength":144,
			"byteOffset":47116,
			"target":34962
		},
		{
			"buffer":0,
			"byteLength":96,
			"byteOffset":47260,
			"target":34962
		},
		{
			"buffer":0,
			"byteLength":60,
			"byteOffset":47356,
			"target":34963
		},
		{
			"buffer":0,
			"byteLength":16800,
			"byteOffset":47416,
			"target":34962
		},
		{
			"buffer":0,
			"byteLength":16800,
			"byteOffset":64216,
			"target":34962
		},
		{
			"buffer":0,
			"byteLength":11200,
			"byteOffset":81016,
			"target":34962
		},
		{
			"buffer":0,
			"byteLength":7200,
			"byteOffset":92216,
			"target":34963
		}
	],
	"samplers":[
		{
			"magFilter":9729,
			"minFilter":9987
		}
	],
	"buffers":[
		{
			"byteLength":99416,
			"uri":"Shower.bin"
		}
	]
}
