{
	"asset":{
		"generator":"Khronos glTF Blender I/O v4.4.55",
		"version":"2.0"
	},
	"scene":0,
	"scenes":[
		{
			"name":"Scene",
			"nodes":[
				0
			]
		}
	],
	"nodes":[
		{
			"mesh":0,
			"name":"Sphere.001",
			"rotation":[
				0.7071068286895752,
				0,
				0,
				0.7071068286895752
			]
		}
	],
	"materials":[
		{
			"doubleSided":true,
			"name":"Material.001",
			"normalTexture":{
				"index":0
			},
			"pbrMetallicRoughness":{
				"baseColorTexture":{
					"index":1
				},
				"metallicFactor":0,
				"metallicRoughnessTexture":{
					"index":2
				}
			}
		}
	],
	"meshes":[
		{
			"name":"Sphere.001",
			"primitives":[
				{
					"attributes":{
						"POSITION":0,
						"NORMAL":1,
						"TEXCOORD_0":2
					},
					"indices":3,
					"material":0
				}
			]
		}
	],
	"textures":[
		{
			"sampler":0,
			"source":0
		},
		{
			"sampler":0,
			"source":1
		},
		{
			"sampler":0,
			"source":2
		}
	],
	"images":[
		{
			"mimeType":"image/png",
			"name":"ball_nor",
			"uri":"ball_nor.png"
		},
		{
			"mimeType":"image/png",
			"name":"ball_base",
			"uri":"ball_base.png"
		},
		{
			"mimeType":"image/png",
			"name":"ball_rough",
			"uri":"ball_rough.png"
		}
	],
	"accessors":[
		{
			"bufferView":0,
			"componentType":5126,
			"count":559,
			"max":[
				1,
				0.999969482421875,
				1
			],
			"min":[
				-0.999969482421875,
				-1,
				-1
			],
			"type":"VEC3"
		},
		{
			"bufferView":1,
			"componentType":5126,
			"count":559,
			"type":"VEC3"
		},
		{
			"bufferView":2,
			"componentType":5126,
			"count":559,
			"type":"VEC2"
		},
		{
			"bufferView":3,
			"componentType":5123,
			"count":2880,
			"type":"SCALAR"
		}
	],
	"bufferViews":[
		{
			"buffer":0,
			"byteLength":6708,
			"byteOffset":0,
			"target":34962
		},
		{
			"buffer":0,
			"byteLength":6708,
			"byteOffset":6708,
			"target":34962
		},
		{
			"buffer":0,
			"byteLength":4472,
			"byteOffset":13416,
			"target":34962
		},
		{
			"buffer":0,
			"byteLength":5760,
			"byteOffset":17888,
			"target":34963
		}
	],
	"samplers":[
		{
			"magFilter":9729,
			"minFilter":9987
		}
	],
	"buffers":[
		{
			"byteLength":23648,
			"uri":"ball.bin"
		}
	]
}
