{
	"asset":{
		"generator":"Khronos glTF Blender I/O v4.2.57",
		"version":"2.0"
	},
	"scene":0,
	"scenes":[
		{
			"name":"Scene",
			"nodes":[
				0
			]
		}
	],
	"nodes":[
		{
			"mesh":0,
			"name":"3D_lamp_11"
		}
	],
	"materials":[
		{
			"doubleSided":true,
			"name":"Material",
			"normalTexture":{
				"index":0
			},
			"pbrMetallicRoughness":{
				"baseColorTexture":{
					"index":1
				},
				"metallicRoughnessTexture":{
					"index":2
				}
			}
		}
	],
	"meshes":[
		{
			"name":"3D_lamp_11",
			"primitives":[
				{
					"attributes":{
						"POSITION":0,
						"NORMAL":1,
						"TEXCOORD_0":2
					},
					"indices":3,
					"material":0
				}
			]
		}
	],
	"textures":[
		{
			"sampler":0,
			"source":0
		},
		{
			"sampler":0,
			"source":1
		},
		{
			"sampler":0,
			"source":2
		}
	],
	"images":[
		{
			"mimeType":"image/png",
			"name":"Lamp_11_ Normal-1K",
			"uri":"Lamp_11_%20Normal-1K.png"
		},
		{
			"mimeType":"image/png",
			"name":"Lamp_11_ Base Color-1K",
			"uri":"Lamp_11_%20Base%20Color-1K.png"
		},
		{
			"mimeType":"image/png",
			"name":"Lamp_11_ Metallic-1K-Lamp_11_ Roughness-1K",
			"uri":"Lamp_11_%20Metallic-1K-Lamp_11_%20Roughness-1K.png"
		}
	],
	"accessors":[
		{
			"bufferView":0,
			"componentType":5126,
			"count":15672,
			"max":[
				0.1810055524110794,
				-1.9209180379675672e-07,
				0.1810055673122406
			],
			"min":[
				-0.18100552260875702,
				-0.5960491299629211,
				-0.1810055375099182
			],
			"type":"VEC3"
		},
		{
			"bufferView":1,
			"componentType":5126,
			"count":15672,
			"type":"VEC3"
		},
		{
			"bufferView":2,
			"componentType":5126,
			"count":15672,
			"type":"VEC2"
		},
		{
			"bufferView":3,
			"componentType":5123,
			"count":88488,
			"type":"SCALAR"
		}
	],
	"bufferViews":[
		{
			"buffer":0,
			"byteLength":188064,
			"byteOffset":0,
			"target":34962
		},
		{
			"buffer":0,
			"byteLength":188064,
			"byteOffset":188064,
			"target":34962
		},
		{
			"buffer":0,
			"byteLength":125376,
			"byteOffset":376128,
			"target":34962
		},
		{
			"buffer":0,
			"byteLength":176976,
			"byteOffset":501504,
			"target":34963
		}
	],
	"samplers":[
		{
			"magFilter":9729,
			"minFilter":9987
		}
	],
	"buffers":[
		{
			"byteLength":678480,
			"uri":"3D_lamp_11-kwi.bin"
		}
	]
}
