{
	"asset":{
		"generator":"Khronos glTF Blender I/O v4.2.57",
		"version":"2.0"
	},
	"scene":0,
	"scenes":[
		{
			"name":"Scene",
			"nodes":[
				0,
				1,
				2
			]
		}
	],
	"nodes":[
		{
			"mesh":0,
			"name":"Cube",
			"rotation":[
				0.7071068286895752,
				0,
				0,
				0.7071068286895752
			]
		},
		{
			"mesh":1,
			"name":"Cube.001",
			"rotation":[
				0.7071068286895752,
				0,
				0,
				0.7071068286895752
			],
			"scale":[
				0.9547836184501648,
				1,
				1
			],
			"translation":[
				0.03281491994857788,
				0,
				0
			]
		},
		{
			"mesh":2,
			"name":"Cube.004",
			"rotation":[
				0.7071068286895752,
				0,
				0,
				0.7071068286895752
			],
			"scale":[
				0.9483227729797363,
				1,
				1
			],
			"translation":[
				-0.04377376288175583,
				0,
				0
			]
		}
	],
	"materials":[
		{
			"doubleSided":true,
			"name":"Material",
			"normalTexture":{
				"index":0
			},
			"pbrMetallicRoughness":{
				"baseColorTexture":{
					"index":1
				},
				"metallicFactor":0,
				"metallicRoughnessTexture":{
					"index":2
				}
			}
		},
		{
			"doubleSided":true,
			"name":"Material.001",
			"normalTexture":{
				"index":3
			},
			"pbrMetallicRoughness":{
				"baseColorFactor":[
					0.800000011920929,
					0.800000011920929,
					0.800000011920929,
					1
				],
				"metallicFactor":0.5772727131843567,
				"metallicRoughnessTexture":{
					"index":4
				}
			}
		}
	],
	"meshes":[
		{
			"name":"Cube",
			"primitives":[
				{
					"attributes":{
						"POSITION":0,
						"NORMAL":1,
						"TEXCOORD_0":2
					},
					"indices":3,
					"material":0
				}
			]
		},
		{
			"name":"Cube.001",
			"primitives":[
				{
					"attributes":{
						"POSITION":4,
						"NORMAL":5,
						"TEXCOORD_0":6
					},
					"indices":7,
					"material":0
				},
				{
					"attributes":{
						"POSITION":8,
						"NORMAL":9,
						"TEXCOORD_0":10
					},
					"indices":11,
					"material":1
				}
			]
		},
		{
			"name":"Cube.004",
			"primitives":[
				{
					"attributes":{
						"POSITION":12,
						"NORMAL":13,
						"TEXCOORD_0":14
					},
					"indices":15,
					"material":0
				},
				{
					"attributes":{
						"POSITION":16,
						"NORMAL":17,
						"TEXCOORD_0":18
					},
					"indices":19,
					"material":1
				}
			]
		}
	],
	"textures":[
		{
			"sampler":0,
			"source":0
		},
		{
			"sampler":0,
			"source":1
		},
		{
			"sampler":0,
			"source":2
		},
		{
			"sampler":0,
			"source":3
		},
		{
			"sampler":0,
			"source":4
		}
	],
	"images":[
		{
			"mimeType":"image/png",
			"name":"PaintedWood007A_2K-PNG_NormalGL",
			"uri":"PaintedWood007A_2K-PNG_NormalGL.png"
		},
		{
			"mimeType":"image/png",
			"name":"PaintedWood007A_2K-PNG_Color",
			"uri":"PaintedWood007A_2K-PNG_Color.png"
		},
		{
			"mimeType":"image/png",
			"name":"PaintedWood007A_2K-PNG_Roughness",
			"uri":"PaintedWood007A_2K-PNG_Roughness.png"
		},
		{
			"mimeType":"image/png",
			"name":"Metal028_2K-PNG_NormalGL",
			"uri":"Metal028_2K-PNG_NormalGL.png"
		},
		{
			"mimeType":"image/png",
			"name":"Metal028_2K-PNG_Roughness",
			"uri":"Metal028_2K-PNG_Roughness.png"
		}
	],
	"accessors":[
		{
			"bufferView":0,
			"componentType":5126,
			"count":48,
			"max":[
				1,
				0.6414200067520142,
				0.010076000355184078
			],
			"min":[
				-1,
				-0.6414200067520142,
				-2.9899239540100098
			],
			"type":"VEC3"
		},
		{
			"bufferView":1,
			"componentType":5126,
			"count":48,
			"type":"VEC3"
		},
		{
			"bufferView":2,
			"componentType":5126,
			"count":48,
			"type":"VEC2"
		},
		{
			"bufferView":3,
			"componentType":5123,
			"count":84,
			"type":"SCALAR"
		},
		{
			"bufferView":4,
			"componentType":5126,
			"count":64,
			"max":[
				0.9477310180664062,
				-0.5297070145606995,
				-0.06712699681520462
			],
			"min":[
				-0.00266100000590086,
				-0.6586499810218811,
				-2.884531021118164
			],
			"type":"VEC3"
		},
		{
			"bufferView":5,
			"componentType":5126,
			"count":64,
			"type":"VEC3"
		},
		{
			"bufferView":6,
			"componentType":5126,
			"count":64,
			"type":"VEC2"
		},
		{
			"bufferView":7,
			"componentType":5123,
			"count":174,
			"type":"SCALAR"
		},
		{
			"bufferView":8,
			"componentType":5126,
			"count":32,
			"max":[
				0.19504208862781525,
				-0.6586499810218811,
				-1.382315993309021
			],
			"min":[
				0.1023240014910698,
				-0.7139149904251099,
				-1.475829005241394
			],
			"type":"VEC3"
		},
		{
			"bufferView":9,
			"componentType":5126,
			"count":32,
			"type":"VEC3"
		},
		{
			"bufferView":10,
			"componentType":5126,
			"count":32,
			"type":"VEC2"
		},
		{
			"bufferView":11,
			"componentType":5123,
			"count":54,
			"type":"SCALAR"
		},
		{
			"bufferView":12,
			"componentType":5126,
			"count":64,
			"max":[
				0.00266100000590086,
				-0.5297070145606995,
				-0.06712699681520462
			],
			"min":[
				-0.9477310180664062,
				-0.6586499810218811,
				-2.884531021118164
			],
			"type":"VEC3"
		},
		{
			"bufferView":13,
			"componentType":5126,
			"count":64,
			"type":"VEC3"
		},
		{
			"bufferView":14,
			"componentType":5126,
			"count":64,
			"type":"VEC2"
		},
		{
			"bufferView":15,
			"componentType":5123,
			"count":174,
			"type":"SCALAR"
		},
		{
			"bufferView":16,
			"componentType":5126,
			"count":32,
			"max":[
				-0.1023240014910698,
				-0.6586499810218811,
				-1.382315993309021
			],
			"min":[
				-0.19504208862781525,
				-0.7139149904251099,
				-1.475829005241394
			],
			"type":"VEC3"
		},
		{
			"bufferView":17,
			"componentType":5126,
			"count":32,
			"type":"VEC3"
		},
		{
			"bufferView":18,
			"componentType":5126,
			"count":32,
			"type":"VEC2"
		},
		{
			"bufferView":19,
			"componentType":5123,
			"count":54,
			"type":"SCALAR"
		}
	],
	"bufferViews":[
		{
			"buffer":0,
			"byteLength":576,
			"byteOffset":0,
			"target":34962
		},
		{
			"buffer":0,
			"byteLength":576,
			"byteOffset":576,
			"target":34962
		},
		{
			"buffer":0,
			"byteLength":384,
			"byteOffset":1152,
			"target":34962
		},
		{
			"buffer":0,
			"byteLength":168,
			"byteOffset":1536,
			"target":34963
		},
		{
			"buffer":0,
			"byteLength":768,
			"byteOffset":1704,
			"target":34962
		},
		{
			"buffer":0,
			"byteLength":768,
			"byteOffset":2472,
			"target":34962
		},
		{
			"buffer":0,
			"byteLength":512,
			"byteOffset":3240,
			"target":34962
		},
		{
			"buffer":0,
			"byteLength":348,
			"byteOffset":3752,
			"target":34963
		},
		{
			"buffer":0,
			"byteLength":384,
			"byteOffset":4100,
			"target":34962
		},
		{
			"buffer":0,
			"byteLength":384,
			"byteOffset":4484,
			"target":34962
		},
		{
			"buffer":0,
			"byteLength":256,
			"byteOffset":4868,
			"target":34962
		},
		{
			"buffer":0,
			"byteLength":108,
			"byteOffset":5124,
			"target":34963
		},
		{
			"buffer":0,
			"byteLength":768,
			"byteOffset":5232,
			"target":34962
		},
		{
			"buffer":0,
			"byteLength":768,
			"byteOffset":6000,
			"target":34962
		},
		{
			"buffer":0,
			"byteLength":512,
			"byteOffset":6768,
			"target":34962
		},
		{
			"buffer":0,
			"byteLength":348,
			"byteOffset":7280,
			"target":34963
		},
		{
			"buffer":0,
			"byteLength":384,
			"byteOffset":7628,
			"target":34962
		},
		{
			"buffer":0,
			"byteLength":384,
			"byteOffset":8012,
			"target":34962
		},
		{
			"buffer":0,
			"byteLength":256,
			"byteOffset":8396,
			"target":34962
		},
		{
			"buffer":0,
			"byteLength":108,
			"byteOffset":8652,
			"target":34963
		}
	],
	"samplers":[
		{
			"magFilter":9729,
			"minFilter":9987
		}
	],
	"buffers":[
		{
			"byteLength":8760,
			"uri":"Closet.bin"
		}
	]
}
