{
	"asset":{
		"generator":"Khronos glTF Blender I/O v4.2.57",
		"version":"2.0"
	},
	"scene":0,
	"scenes":[
		{
			"name":"Scene",
			"nodes":[
				0,
				1,
				2
			]
		}
	],
	"nodes":[
		{
			"mesh":0,
			"name":"Object_2"
		},
		{
			"mesh":1,
			"name":"Object_3"
		},
		{
			"mesh":2,
			"name":"Object_4"
		}
	],
	"materials":[
		{
			"doubleSided":true,
			"name":"FACE",
			"normalTexture":{
				"index":0
			},
			"occlusionTexture":{
				"index":1
			},
			"pbrMetallicRoughness":{
				"baseColorTexture":{
					"index":2
				},
				"metallicRoughnessTexture":{
					"index":1
				}
			}
		},
		{
			"alphaMode":"BLEND",
			"doubleSided":true,
			"name":"GLASS",
			"normalTexture":{
				"index":3
			},
			"occlusionTexture":{
				"index":4
			},
			"pbrMetallicRoughness":{
				"baseColorTexture":{
					"index":5
				},
				"metallicRoughnessTexture":{
					"index":4
				}
			}
		},
		{
			"doubleSided":true,
			"name":"STEEL",
			"normalTexture":{
				"index":6
			},
			"occlusionTexture":{
				"index":7
			},
			"pbrMetallicRoughness":{
				"baseColorTexture":{
					"index":8
				},
				"metallicRoughnessTexture":{
					"index":7
				}
			}
		}
	],
	"meshes":[
		{
			"name":"Object_0",
			"primitives":[
				{
					"attributes":{
						"POSITION":0,
						"NORMAL":1,
						"TEXCOORD_0":2
					},
					"indices":3,
					"material":0
				}
			]
		},
		{
			"name":"Object_1",
			"primitives":[
				{
					"attributes":{
						"POSITION":4,
						"NORMAL":5,
						"TEXCOORD_0":6
					},
					"indices":7,
					"material":1
				}
			]
		},
		{
			"name":"Object_2",
			"primitives":[
				{
					"attributes":{
						"POSITION":8,
						"NORMAL":9,
						"TEXCOORD_0":10
					},
					"indices":11,
					"material":2
				}
			]
		}
	],
	"textures":[
		{
			"sampler":0,
			"source":0
		},
		{
			"sampler":0,
			"source":1
		},
		{
			"sampler":0,
			"source":2
		},
		{
			"sampler":0,
			"source":3
		},
		{
			"sampler":0,
			"source":4
		},
		{
			"sampler":0,
			"source":5
		},
		{
			"sampler":0,
			"source":6
		},
		{
			"sampler":0,
			"source":7
		},
		{
			"sampler":0,
			"source":8
		}
	],
	"images":[
		{
			"mimeType":"image/png",
			"name":"FACE_normal",
			"uri":"FACE_normal.png"
		},
		{
			"mimeType":"image/png",
			"name":"FACE_metallicRoughness",
			"uri":"FACE_metallicRoughness.png"
		},
		{
			"mimeType":"image/png",
			"name":"FACE_baseColor",
			"uri":"FACE_baseColor.png"
		},
		{
			"mimeType":"image/png",
			"name":"GLASS_normal",
			"uri":"GLASS_normal.png"
		},
		{
			"mimeType":"image/png",
			"name":"GLASS_metallicRoughness",
			"uri":"GLASS_metallicRoughness.png"
		},
		{
			"mimeType":"image/png",
			"name":"GLASS_baseColor",
			"uri":"GLASS_baseColor.png"
		},
		{
			"mimeType":"image/png",
			"name":"STEEL_normal",
			"uri":"STEEL_normal.png"
		},
		{
			"mimeType":"image/png",
			"name":"STEEL_metallicRoughness",
			"uri":"STEEL_metallicRoughness.png"
		},
		{
			"mimeType":"image/png",
			"name":"STEEL_baseColor",
			"uri":"STEEL_baseColor.png"
		}
	],
	"accessors":[
		{
			"bufferView":0,
			"componentType":5126,
			"count":196,
			"max":[
				0.063902847468853,
				-0.039590075612068176,
				0.014520401135087013
			],
			"min":[
				-0.06408974528312683,
				-0.1675826758146286,
				0.014154098927974701
			],
			"type":"VEC3"
		},
		{
			"bufferView":1,
			"componentType":5126,
			"count":196,
			"type":"VEC3"
		},
		{
			"bufferView":2,
			"componentType":5126,
			"count":196,
			"type":"VEC2"
		},
		{
			"bufferView":3,
			"componentType":5123,
			"count":825,
			"type":"SCALAR"
		},
		{
			"bufferView":4,
			"componentType":5126,
			"count":778,
			"max":[
				0.061018023639917374,
				-0.042497698217630386,
				0.030382711440324783
			],
			"min":[
				-0.061204928904771805,
				-0.16472095251083374,
				0.015791211277246475
			],
			"type":"VEC3"
		},
		{
			"bufferView":5,
			"componentType":5126,
			"count":778,
			"type":"VEC3"
		},
		{
			"bufferView":6,
			"componentType":5126,
			"count":778,
			"type":"VEC2"
		},
		{
			"bufferView":7,
			"componentType":5123,
			"count":3648,
			"type":"SCALAR"
		},
		{
			"bufferView":8,
			"componentType":5126,
			"count":5141,
			"max":[
				0.07340691238641739,
				0.028687098994851112,
				0.019219335168600082
			],
			"min":[
				-0.0735941156744957,
				-0.1771116405725479,
				-0.017548322677612305
			],
			"type":"VEC3"
		},
		{
			"bufferView":9,
			"componentType":5126,
			"count":5141,
			"type":"VEC3"
		},
		{
			"bufferView":10,
			"componentType":5126,
			"count":5141,
			"type":"VEC2"
		},
		{
			"bufferView":11,
			"componentType":5123,
			"count":24948,
			"type":"SCALAR"
		}
	],
	"bufferViews":[
		{
			"buffer":0,
			"byteLength":2352,
			"byteOffset":0,
			"target":34962
		},
		{
			"buffer":0,
			"byteLength":2352,
			"byteOffset":2352,
			"target":34962
		},
		{
			"buffer":0,
			"byteLength":1568,
			"byteOffset":4704,
			"target":34962
		},
		{
			"buffer":0,
			"byteLength":1650,
			"byteOffset":6272,
			"target":34963
		},
		{
			"buffer":0,
			"byteLength":9336,
			"byteOffset":7924,
			"target":34962
		},
		{
			"buffer":0,
			"byteLength":9336,
			"byteOffset":17260,
			"target":34962
		},
		{
			"buffer":0,
			"byteLength":6224,
			"byteOffset":26596,
			"target":34962
		},
		{
			"buffer":0,
			"byteLength":7296,
			"byteOffset":32820,
			"target":34963
		},
		{
			"buffer":0,
			"byteLength":61692,
			"byteOffset":40116,
			"target":34962
		},
		{
			"buffer":0,
			"byteLength":61692,
			"byteOffset":101808,
			"target":34962
		},
		{
			"buffer":0,
			"byteLength":41128,
			"byteOffset":163500,
			"target":34962
		},
		{
			"buffer":0,
			"byteLength":49896,
			"byteOffset":204628,
			"target":34963
		}
	],
	"samplers":[
		{
			"magFilter":9729,
			"minFilter":9987
		}
	],
	"buffers":[
		{
			"byteLength":254524,
			"uri":"scene.bin"
		}
	]
}
