{
	"asset":{
		"generator":"Khronos glTF Blender I/O v4.2.57",
		"version":"2.0"
	},
	"scene":0,
	"scenes":[
		{
			"name":"Scene",
			"nodes":[
				0
			]
		}
	],
	"nodes":[
		{
			"mesh":0,
			"name":"Sofa 2"
		}
	],
	"materials":[
		{
			"doubleSided":true,
			"name":"Material",
			"normalTexture":{
				"index":0
			},
			"pbrMetallicRoughness":{
				"baseColorTexture":{
					"index":1
				},
				"metallicRoughnessTexture":{
					"index":2
				}
			}
		}
	],
	"meshes":[
		{
			"name":"3D_Sofa_2",
			"primitives":[
				{
					"attributes":{
						"POSITION":0,
						"NORMAL":1,
						"TEXCOORD_0":2,
						"TEXCOORD_1":3
					},
					"indices":4,
					"material":0
				}
			]
		}
	],
	"textures":[
		{
			"sampler":0,
			"source":0
		},
		{
			"sampler":0,
			"source":1
		},
		{
			"sampler":0,
			"source":2
		}
	],
	"images":[
		{
			"mimeType":"image/png",
			"name":"Sofa_2_Normal-1K",
			"uri":"Sofa_2_Normal-1K.png"
		},
		{
			"mimeType":"image/png",
			"name":"Sofa_2_BaseColor-1K",
			"uri":"Sofa_2_BaseColor-1K.png"
		},
		{
			"mimeType":"image/png",
			"name":"Sofa_2_Metallic-1K-Sofa_2_Roughness-1K",
			"uri":"Sofa_2_Metallic-1K-Sofa_2_Roughness-1K.png"
		}
	],
	"accessors":[
		{
			"bufferView":0,
			"componentType":5126,
			"count":17198,
			"max":[
				0.9595430493354797,
				0.6934875845909119,
				0.3463265597820282
			],
			"min":[
				-1.1127580404281616,
				-2.6621776783031237e-08,
				-0.36833885312080383
			],
			"type":"VEC3"
		},
		{
			"bufferView":1,
			"componentType":5126,
			"count":17198,
			"type":"VEC3"
		},
		{
			"bufferView":2,
			"componentType":5126,
			"count":17198,
			"type":"VEC2"
		},
		{
			"bufferView":3,
			"componentType":5126,
			"count":17198,
			"type":"VEC2"
		},
		{
			"bufferView":4,
			"componentType":5123,
			"count":74460,
			"type":"SCALAR"
		}
	],
	"bufferViews":[
		{
			"buffer":0,
			"byteLength":206376,
			"byteOffset":0,
			"target":34962
		},
		{
			"buffer":0,
			"byteLength":206376,
			"byteOffset":206376,
			"target":34962
		},
		{
			"buffer":0,
			"byteLength":137584,
			"byteOffset":412752,
			"target":34962
		},
		{
			"buffer":0,
			"byteLength":137584,
			"byteOffset":550336,
			"target":34962
		},
		{
			"buffer":0,
			"byteLength":148920,
			"byteOffset":687920,
			"target":34963
		}
	],
	"samplers":[
		{
			"magFilter":9729,
			"minFilter":9987
		}
	],
	"buffers":[
		{
			"byteLength":836840,
			"uri":"Sofa-Taha_Arslan_CC0.bin"
		}
	]
}
