{
	"asset":{
		"generator":"Khronos glTF Blender I/O v4.2.57",
		"version":"2.0"
	},
	"scene":0,
	"scenes":[
		{
			"name":"Scene",
			"nodes":[
				0
			]
		}
	],
	"nodes":[
		{
			"mesh":0,
			"name":"Cube",
			"translation":[
				-13.584494590759277,
				54.99635314941406,
				0.19015911221504211
			]
		}
	],
	"materials":[
		{
			"doubleSided":true,
			"name":"Home",
			"normalTexture":{
				"index":0
			},
			"pbrMetallicRoughness":{
				"baseColorTexture":{
					"index":1
				},
				"metallicFactor":0,
				"metallicRoughnessTexture":{
					"index":2
				}
			}
		},
		{
			"doubleSided":true,
			"name":"Home_Bath",
			"normalTexture":{
				"index":3
			},
			"pbrMetallicRoughness":{
				"baseColorTexture":{
					"index":4
				},
				"metallicFactor":0,
				"metallicRoughnessTexture":{
					"index":5
				}
			}
		},
		{
			"doubleSided":true,
			"name":"Home_Floor",
			"normalTexture":{
				"index":6
			},
			"pbrMetallicRoughness":{
				"baseColorTexture":{
					"index":7
				},
				"metallicFactor":0,
				"metallicRoughnessTexture":{
					"index":8
				}
			}
		},
		{
			"doubleSided":true,
			"name":"Home_Kitchen",
			"normalTexture":{
				"index":9
			},
			"pbrMetallicRoughness":{
				"baseColorTexture":{
					"index":10
				},
				"metallicFactor":0,
				"metallicRoughnessTexture":{
					"index":11
				}
			}
		}
	],
	"meshes":[
		{
			"name":"Cube",
			"primitives":[
				{
					"attributes":{
						"POSITION":0,
						"NORMAL":1,
						"TEXCOORD_0":2
					},
					"indices":3,
					"material":0
				},
				{
					"attributes":{
						"POSITION":4,
						"NORMAL":5,
						"TEXCOORD_0":6
					},
					"indices":7,
					"material":1
				},
				{
					"attributes":{
						"POSITION":8,
						"NORMAL":9,
						"TEXCOORD_0":10
					},
					"indices":11,
					"material":2
				},
				{
					"attributes":{
						"POSITION":12,
						"NORMAL":13,
						"TEXCOORD_0":14
					},
					"indices":15,
					"material":3
				},
				{
					"attributes":{
						"POSITION":16,
						"NORMAL":17,
						"TEXCOORD_0":18
					},
					"indices":19,
					"material":3
				}
			]
		}
	],
	"textures":[
		{
			"sampler":0,
			"source":0
		},
		{
			"sampler":0,
			"source":1
		},
		{
			"sampler":0,
			"source":2
		},
		{
			"sampler":0,
			"source":3
		},
		{
			"sampler":0,
			"source":4
		},
		{
			"sampler":0,
			"source":5
		},
		{
			"sampler":0,
			"source":6
		},
		{
			"sampler":0,
			"source":7
		},
		{
			"sampler":0,
			"source":8
		},
		{
			"sampler":0,
			"source":9
		},
		{
			"sampler":0,
			"source":10
		},
		{
			"sampler":0,
			"source":11
		}
	],
	"images":[
		{
			"mimeType":"image/png",
			"name":"Wallpaper002A_2K-PNG_NormalGL",
			"uri":"Wallpaper002A_2K-PNG_NormalGL.png"
		},
		{
			"mimeType":"image/png",
			"name":"Wallpaper002A_2K-PNG_Color",
			"uri":"Wallpaper002A_2K-PNG_Color.png"
		},
		{
			"mimeType":"image/png",
			"name":"Wallpaper002A_2K-PNG_Roughness",
			"uri":"Wallpaper002A_2K-PNG_Roughness.png"
		},
		{
			"mimeType":"image/png",
			"name":"Tiles003_2K-PNG_NormalGL",
			"uri":"Tiles003_2K-PNG_NormalGL.png"
		},
		{
			"mimeType":"image/png",
			"name":"Tiles003_2K-PNG_Color",
			"uri":"Tiles003_2K-PNG_Color.png"
		},
		{
			"mimeType":"image/png",
			"name":"Tiles003_2K-PNG_Roughness",
			"uri":"Tiles003_2K-PNG_Roughness.png"
		},
		{
			"mimeType":"image/png",
			"name":"WoodFloor051_2K-PNG_NormalGL",
			"uri":"WoodFloor051_2K-PNG_NormalGL.png"
		},
		{
			"mimeType":"image/png",
			"name":"WoodFloor051_2K-PNG_Color",
			"uri":"WoodFloor051_2K-PNG_Color.png"
		},
		{
			"mimeType":"image/png",
			"name":"WoodFloor051_2K-PNG_Roughness",
			"uri":"WoodFloor051_2K-PNG_Roughness.png"
		},
		{
			"mimeType":"image/png",
			"name":"Tiles040_2K-PNG_NormalGL",
			"uri":"Tiles040_2K-PNG_NormalGL.png"
		},
		{
			"mimeType":"image/png",
			"name":"Tiles040_2K-PNG_Color",
			"uri":"Tiles040_2K-PNG_Color.png"
		},
		{
			"mimeType":"image/png",
			"name":"Tiles040_2K-PNG_Roughness",
			"uri":"Tiles040_2K-PNG_Roughness.png"
		}
	],
	"accessors":[
		{
			"bufferView":0,
			"componentType":5126,
			"count":230,
			"max":[
				3.409998655319214,
				1.204322338104248,
				4.67466402053833
			],
			"min":[
				-3.409998655319214,
				-3.427943706512451,
				-4.67466402053833
			],
			"type":"VEC3"
		},
		{
			"bufferView":1,
			"componentType":5126,
			"count":230,
			"type":"VEC3"
		},
		{
			"bufferView":2,
			"componentType":5126,
			"count":230,
			"type":"VEC2"
		},
		{
			"bufferView":3,
			"componentType":5123,
			"count":498,
			"type":"SCALAR"
		},
		{
			"bufferView":4,
			"componentType":5126,
			"count":32,
			"max":[
				1.8392523527145386,
				1.204322338104248,
				4.67466402053833
			],
			"min":[
				-0.6173272132873535,
				-3.410017728805542,
				1.7419735193252563
			],
			"type":"VEC3"
		},
		{
			"bufferView":5,
			"componentType":5126,
			"count":32,
			"type":"VEC3"
		},
		{
			"bufferView":6,
			"componentType":5126,
			"count":32,
			"type":"VEC2"
		},
		{
			"bufferView":7,
			"componentType":5123,
			"count":60,
			"type":"SCALAR"
		},
		{
			"bufferView":8,
			"componentType":5126,
			"count":34,
			"max":[
				3.381131172180176,
				-3.360017776489258,
				4.635090351104736
			],
			"min":[
				-3.381131172180176,
				-3.381150245666504,
				-4.635090351104736
			],
			"type":"VEC3"
		},
		{
			"bufferView":9,
			"componentType":5126,
			"count":34,
			"type":"VEC3"
		},
		{
			"bufferView":10,
			"componentType":5126,
			"count":34,
			"type":"VEC2"
		},
		{
			"bufferView":11,
			"componentType":5123,
			"count":54,
			"type":"SCALAR"
		},
		{
			"bufferView":12,
			"componentType":5126,
			"count":28,
			"max":[
				1.81566321849823,
				1.204322338104248,
				4.67466402053833
			],
			"min":[
				-3.381131172180176,
				-3.410017728805542,
				0.01751307025551796
			],
			"type":"VEC3"
		},
		{
			"bufferView":13,
			"componentType":5126,
			"count":28,
			"type":"VEC3"
		},
		{
			"bufferView":14,
			"componentType":5126,
			"count":28,
			"type":"VEC2"
		},
		{
			"bufferView":15,
			"componentType":5123,
			"count":54,
			"type":"SCALAR"
		},
		{
			"bufferView":16,
			"componentType":5126,
			"count":52,
			"max":[
				1.1879414319992065,
				0.5271129608154297,
				3.414119005203247
			],
			"min":[
				-3.409998655319214,
				-3.3579280376434326,
				-3.404022693634033
			],
			"type":"VEC3"
		},
		{
			"bufferView":17,
			"componentType":5126,
			"count":52,
			"type":"VEC3"
		},
		{
			"bufferView":18,
			"componentType":5126,
			"count":52,
			"type":"VEC2"
		},
		{
			"bufferView":19,
			"componentType":5123,
			"count":84,
			"type":"SCALAR"
		}
	],
	"bufferViews":[
		{
			"buffer":0,
			"byteLength":2760,
			"byteOffset":0,
			"target":34962
		},
		{
			"buffer":0,
			"byteLength":2760,
			"byteOffset":2760,
			"target":34962
		},
		{
			"buffer":0,
			"byteLength":1840,
			"byteOffset":5520,
			"target":34962
		},
		{
			"buffer":0,
			"byteLength":996,
			"byteOffset":7360,
			"target":34963
		},
		{
			"buffer":0,
			"byteLength":384,
			"byteOffset":8356,
			"target":34962
		},
		{
			"buffer":0,
			"byteLength":384,
			"byteOffset":8740,
			"target":34962
		},
		{
			"buffer":0,
			"byteLength":256,
			"byteOffset":9124,
			"target":34962
		},
		{
			"buffer":0,
			"byteLength":120,
			"byteOffset":9380,
			"target":34963
		},
		{
			"buffer":0,
			"byteLength":408,
			"byteOffset":9500,
			"target":34962
		},
		{
			"buffer":0,
			"byteLength":408,
			"byteOffset":9908,
			"target":34962
		},
		{
			"buffer":0,
			"byteLength":272,
			"byteOffset":10316,
			"target":34962
		},
		{
			"buffer":0,
			"byteLength":108,
			"byteOffset":10588,
			"target":34963
		},
		{
			"buffer":0,
			"byteLength":336,
			"byteOffset":10696,
			"target":34962
		},
		{
			"buffer":0,
			"byteLength":336,
			"byteOffset":11032,
			"target":34962
		},
		{
			"buffer":0,
			"byteLength":224,
			"byteOffset":11368,
			"target":34962
		},
		{
			"buffer":0,
			"byteLength":108,
			"byteOffset":11592,
			"target":34963
		},
		{
			"buffer":0,
			"byteLength":624,
			"byteOffset":11700,
			"target":34962
		},
		{
			"buffer":0,
			"byteLength":624,
			"byteOffset":12324,
			"target":34962
		},
		{
			"buffer":0,
			"byteLength":416,
			"byteOffset":12948,
			"target":34962
		},
		{
			"buffer":0,
			"byteLength":168,
			"byteOffset":13364,
			"target":34963
		}
	],
	"samplers":[
		{
			"magFilter":9729,
			"minFilter":9987
		}
	],
	"buffers":[
		{
			"byteLength":13532,
			"uri":"Home202501_SergeHome.bin"
		}
	]
}
