<?xml version="1.0" encoding="UTF-8" standalone="no"?>
<!-- Created with Inkscape (http://www.inkscape.org/) -->

<svg
   width="24.0px"
   height="24.0px"
   viewBox="0 0 24.0 24.0"
   version="1.1"
   id="SVGRoot"
   sodipodi:docname="ButtonDisabled.svg"
   inkscape:version="1.2.1 (9c6d41e410, 2022-07-14)"
   xmlns:inkscape="http://www.inkscape.org/namespaces/inkscape"
   xmlns:sodipodi="http://sodipodi.sourceforge.net/DTD/sodipodi-0.dtd"
   xmlns="http://www.w3.org/2000/svg"
   xmlns:svg="http://www.w3.org/2000/svg">
  <sodipodi:namedview
     id="namedview687"
     pagecolor="#505050"
     bordercolor="#ffffff"
     borderopacity="1"
     inkscape:showpageshadow="0"
     inkscape:pageopacity="0"
     inkscape:pagecheckerboard="1"
     inkscape:deskcolor="#505050"
     inkscape:document-units="px"
     showgrid="true"
     inkscape:zoom="11.816274"
     inkscape:cx="15.1486"
     inkscape:cy="19.041536"
     inkscape:window-width="1920"
     inkscape:window-height="1009"
     inkscape:window-x="-8"
     inkscape:window-y="-8"
     inkscape:window-maximized="1"
     inkscape:current-layer="layer1">
    <inkscape:grid
       type="xygrid"
       id="grid810" />
  </sodipodi:namedview>
  <defs
     id="defs682">
    <mask
       id="path-84-inside-1_1_840"
       fill="#ffffff">
      <path
         d="m 37,270 c 0,-2.209 1.7909,-4 4,-4 h 58 c 2.209,0 4,1.791 4,4 v 24 c 0,2.209 -1.791,4 -4,4 H 41 c -2.2091,0 -4,-1.791 -4,-4 z"
         id="path302" />
    </mask>
    <mask
       id="path-84-inside-1_1_840-5"
       fill="#ffffff">
      <path
         d="m 37,270 c 0,-2.209 1.7909,-4 4,-4 h 58 c 2.209,0 4,1.791 4,4 v 24 c 0,2.209 -1.791,4 -4,4 H 41 c -2.2091,0 -4,-1.791 -4,-4 z"
         id="path302-1" />
    </mask>
    <mask
       id="path-96-inside-5_1_840"
       fill="#ffffff">
      <path
         d="m 123,270 c 0,-2.209 1.791,-4 4,-4 h 58 c 2.209,0 4,1.791 4,4 v 24 c 0,2.209 -1.791,4 -4,4 h -58 c -2.209,0 -4,-1.791 -4,-4 z"
         id="path338" />
    </mask>
    <mask
       id="path-93-inside-4_1_840"
       fill="#ffffff">
      <path
         d="m 209,270 c 0,-2.209 1.791,-4 4,-4 h 58 c 2.209,0 4,1.791 4,4 v 24 c 0,2.209 -1.791,4 -4,4 h -58 c -2.209,0 -4,-1.791 -4,-4 z"
         id="path329" />
    </mask>
    <mask
       id="path-90-inside-3_1_840"
       fill="#ffffff">
      <path
         d="m 295,270 c 0,-2.209 1.791,-4 4,-4 h 58 c 2.209,0 4,1.791 4,4 v 24 c 0,2.209 -1.791,4 -4,4 h -58 c -2.209,0 -4,-1.791 -4,-4 z"
         id="path320" />
    </mask>
    <mask
       id="path-90-inside-3_1_840-1"
       fill="#ffffff">
      <path
         d="m 295,270 c 0,-2.209 1.791,-4 4,-4 h 58 c 2.209,0 4,1.791 4,4 v 24 c 0,2.209 -1.791,4 -4,4 h -58 c -2.209,0 -4,-1.791 -4,-4 z"
         id="path320-9" />
    </mask>
    <mask
       id="path-87-inside-2_1_840"
       fill="#ffffff">
      <path
         d="m 381,270 c 0,-2.209 1.791,-4 4,-4 h 58 c 2.209,0 4,1.791 4,4 v 24 c 0,2.209 -1.791,4 -4,4 h -58 c -2.209,0 -4,-1.791 -4,-4 z"
         id="path311" />
    </mask>
  </defs>
  <g
     inkscape:label="Слой 1"
     inkscape:groupmode="layer"
     id="layer1">
    <path
       d="m 0.2592119,8.0195812 c 0,-0.7861955 0.63742697,-1.4236221 1.4236226,-1.4236221 H 22.325361 c 0.786196,0 1.423622,0.6374266 1.423622,1.4236221 v 8.5417358 c 0,0.786195 -0.637426,1.423622 -1.423622,1.423622 H 1.6828345 c -0.78619563,0 -1.4236226,-0.637427 -1.4236226,-1.423622 z"
       fill="#f0f0f0"
       id="path314"
       style="stroke-width:0.355906" />
    <path
       d="m 385,267 h 58 v -2 h -58 z m 61,3 v 24 h 2 v -24 z m -3,27 h -58 v 2 h 58 z m -61,-3 v -24 h -2 v 24 z m 3,3 c -1.657,0 -3,-1.343 -3,-3 h -2 c 0,2.761 2.239,5 5,5 z m 61,-3 c 0,1.657 -1.343,3 -3,3 v 2 c 2.761,0 5,-2.239 5,-5 z m -3,-27 c 1.657,0 3,1.343 3,3 h 2 c 0,-2.761 -2.239,-5 -5,-5 z m -58,-2 c -2.761,0 -5,2.239 -5,5 h 2 c 0,-1.657 1.343,-3 3,-3 z"
       fill="#e0e0e0"
       mask="url(#path-87-inside-2_1_840)"
       id="path316"
       transform="matrix(0.35590562,0,0,0.35590562,-135.34083,-88.074938)" />
  </g>
</svg>
