{
	"asset":{
		"generator":"Khronos glTF Blender I/O v4.2.57",
		"version":"2.0"
	},
	"scene":0,
	"scenes":[
		{
			"name":"Scene",
			"nodes":[
				0
			]
		}
	],
	"nodes":[
		{
			"mesh":0,
			"name":"Cube"
		}
	],
	"materials":[
		{
			"doubleSided":true,
			"name":"Material",
			"normalTexture":{
				"index":0
			},
			"pbrMetallicRoughness":{
				"baseColorTexture":{
					"index":1
				},
				"metallicFactor":0,
				"metallicRoughnessTexture":{
					"index":2
				}
			}
		},
		{
			"doubleSided":true,
			"name":"Wood",
			"normalTexture":{
				"index":3
			},
			"pbrMetallicRoughness":{
				"baseColorTexture":{
					"index":4
				},
				"metallicFactor":0,
				"metallicRoughnessTexture":{
					"index":5
				}
			}
		}
	],
	"meshes":[
		{
			"name":"Cube",
			"primitives":[
				{
					"attributes":{
						"POSITION":0,
						"NORMAL":1,
						"TEXCOORD_0":2
					},
					"indices":3,
					"material":0
				},
				{
					"attributes":{
						"POSITION":4,
						"NORMAL":5,
						"TEXCOORD_0":6
					},
					"indices":7,
					"material":1
				}
			]
		}
	],
	"textures":[
		{
			"sampler":0,
			"source":0
		},
		{
			"sampler":0,
			"source":1
		},
		{
			"sampler":0,
			"source":2
		},
		{
			"sampler":0,
			"source":3
		},
		{
			"sampler":0,
			"source":4
		},
		{
			"sampler":0,
			"source":5
		}
	],
	"images":[
		{
			"mimeType":"image/png",
			"name":"Metal028_2K-PNG_NormalGL",
			"uri":"Metal028_2K-PNG_NormalGL.png"
		},
		{
			"mimeType":"image/png",
			"name":"Metal028_2K-PNG_Color",
			"uri":"Metal028_2K-PNG_Color.png"
		},
		{
			"mimeType":"image/png",
			"name":"Metal028_2K-PNG_Roughness",
			"uri":"Metal028_2K-PNG_Roughness.png"
		},
		{
			"mimeType":"image/png",
			"name":"PaintedWood007A_2K-PNG_NormalGL",
			"uri":"PaintedWood007A_2K-PNG_NormalGL.png"
		},
		{
			"mimeType":"image/png",
			"name":"PaintedWood007A_2K-PNG_Color",
			"uri":"PaintedWood007A_2K-PNG_Color.png"
		},
		{
			"mimeType":"image/png",
			"name":"PaintedWood007A_2K-PNG_Roughness",
			"uri":"PaintedWood007A_2K-PNG_Roughness.png"
		}
	],
	"accessors":[
		{
			"bufferView":0,
			"componentType":5126,
			"count":176,
			"max":[
				0.3547629714012146,
				0.170026496052742,
				0.170026496052742
			],
			"min":[
				-0.35908862948417664,
				-0.170026496052742,
				-0.170026496052742
			],
			"type":"VEC3"
		},
		{
			"bufferView":1,
			"componentType":5126,
			"count":176,
			"type":"VEC3"
		},
		{
			"bufferView":2,
			"componentType":5126,
			"count":176,
			"type":"VEC2"
		},
		{
			"bufferView":3,
			"componentType":5123,
			"count":432,
			"type":"SCALAR"
		},
		{
			"bufferView":4,
			"componentType":5126,
			"count":32,
			"max":[
				0.3207576870918274,
				0.08299418538808823,
				0.170026496052742
			],
			"min":[
				-0.32508331537246704,
				-0.12008120119571686,
				-0.170026496052742
			],
			"type":"VEC3"
		},
		{
			"bufferView":5,
			"componentType":5126,
			"count":32,
			"type":"VEC3"
		},
		{
			"bufferView":6,
			"componentType":5126,
			"count":32,
			"type":"VEC2"
		},
		{
			"bufferView":7,
			"componentType":5123,
			"count":48,
			"type":"SCALAR"
		}
	],
	"bufferViews":[
		{
			"buffer":0,
			"byteLength":2112,
			"byteOffset":0,
			"target":34962
		},
		{
			"buffer":0,
			"byteLength":2112,
			"byteOffset":2112,
			"target":34962
		},
		{
			"buffer":0,
			"byteLength":1408,
			"byteOffset":4224,
			"target":34962
		},
		{
			"buffer":0,
			"byteLength":864,
			"byteOffset":5632,
			"target":34963
		},
		{
			"buffer":0,
			"byteLength":384,
			"byteOffset":6496,
			"target":34962
		},
		{
			"buffer":0,
			"byteLength":384,
			"byteOffset":6880,
			"target":34962
		},
		{
			"buffer":0,
			"byteLength":256,
			"byteOffset":7264,
			"target":34962
		},
		{
			"buffer":0,
			"byteLength":96,
			"byteOffset":7520,
			"target":34963
		}
	],
	"samplers":[
		{
			"magFilter":9729,
			"minFilter":9987
		}
	],
	"buffers":[
		{
			"byteLength":7616,
			"uri":"BootHolder.bin"
		}
	]
}
